HIERARCHY
ROOT Hips
{
  OFFSET 0 89.5177 0.535
  CHANNELS 6 Xposition Yposition Zposition Zrotation Xrotation Yrotation
  JOINT Spine
  {
    OFFSET 12.0259 -0.162855 1.69034e-005
    CHANNELS 3 Zrotation Xrotation Yrotation
    JOINT Spine1
    {
      OFFSET 15.3169 -0.0121922 0
      CHANNELS 3 Zrotation Xrotation Yrotation
      JOINT Spine2
      {
        OFFSET 15.3176 -0.0121908 0
        CHANNELS 3 Zrotation Xrotation Yrotation
        JOINT Neck
        {
          OFFSET 19.9142 1.56338 0
          CHANNELS 3 Zrotation Xrotation Yrotation
          JOINT Head
          {
            OFFSET 6.92651 0 0
            CHANNELS 3 Zrotation Xrotation Yrotation
            End Site
            {
              OFFSET 20.7666 0 0
            }
          }
          JOINT LeftShoulder
          {
            OFFSET -6.20654 0.708824 7.28219
            CHANNELS 3 Zrotation Xrotation Yrotation
            JOINT LeftArm
            {
              OFFSET 14.108 0 -1.52588e-005
              CHANNELS 3 Zrotation Xrotation Yrotation
              JOINT LeftForeArm
              {
                OFFSET 28.5802 0 0
                CHANNELS 3 Zrotation Xrotation Yrotation
                JOINT LeftHand
                {
                  OFFSET 27.092 0 0
                  CHANNELS 3 Zrotation Xrotation Yrotation
                  End Site
                  {
                    OFFSET 9.55928 -0.186424 0.145352
                  }
                }
              }
            }
          }
          JOINT RightShoulder
          {
            OFFSET -6.20654 0.708866 -7.28218
            CHANNELS 3 Zrotation Xrotation Yrotation
            JOINT RightArm
            {
              OFFSET 14.108 0 1.52588e-005
              CHANNELS 3 Zrotation Xrotation Yrotation
              JOINT RightForeArm
              {
                OFFSET 28.5802 0 0
                CHANNELS 3 Zrotation Xrotation Yrotation
                JOINT RightHand
                {
                  OFFSET 27.092 0 0
                  CHANNELS 3 Zrotation Xrotation Yrotation
                  End Site
                  {
                    OFFSET 9.55929 -0.186417 -0.145354
                  }
                }
              }
            }
          }
        }
      }
    }
  }
  JOINT LeftUpLeg
  {
    OFFSET 0.005 -0.535 8.837
    CHANNELS 3 Zrotation Xrotation Yrotation
    JOINT LeftLeg
    {
      OFFSET 39.9035 0 0
      CHANNELS 3 Zrotation Xrotation Yrotation
      JOINT LeftFoot
      {
        OFFSET 39.6689 0 0
        CHANNELS 3 Zrotation Xrotation Yrotation
        JOINT LeftToe
        {
          OFFSET 10.1624 13.6296 0
          CHANNELS 3 Zrotation Xrotation Yrotation
          End Site
          {
            OFFSET 8.38147 0 0
          }
        }
      }
    }
  }
  JOINT RightUpLeg
  {
    OFFSET 0.005 -0.535 -8.837
    CHANNELS 3 Zrotation Xrotation Yrotation
    JOINT RightLeg
    {
      OFFSET 39.9035 0 0
      CHANNELS 3 Zrotation Xrotation Yrotation
      JOINT RightFoot
      {
        OFFSET 39.6689 0 0
        CHANNELS 3 Zrotation Xrotation Yrotation
        JOINT RightToe
        {
          OFFSET 10.1624 13.6296 0
          CHANNELS 3 Zrotation Xrotation Yrotation
          End Site
          {
            OFFSET 8.38147 0 0
          }
        }
      }
    }
  }
}
MOTION
Frames:	6
Frame Time:	0.0333333
194.704 85.4243 7.64039 97.5355 49.6986 -1.79095 1.6105 1.07255 -2.26918 3.26303 2.08054 -4.56859 3.26303 2.08054 -4.5686 -8.31225e-012 -9.0191e-006 -5.27751e-005 -5.09375 12.8826 -2.83567 -179.329 -2.31707 -73.8484 -4.44011 20.0476 54.357 -82.7666 -6.36111e-015 -6.36111e-015 -50.8913 -39.0206 -37.055 -178.113 4.55084 67.4493 -11.4386 -9.83804 -68.2351 -51.3831 3.18055e-015 3.18055e-015 167.339 -49.2532 71.1954 -21.9253 1.08813 -173.892 -35.447 0 3.18055e-015 24.1949 6.95343 -14.6238 90 9.93923e-017 -0 -35.9302 -15.6361 156.396 -72.9902 -1.59028e-015 -3.18056e-015 -1.22539 5.90076 -6.11685 90 3.18055e-015 4.77083e-015 
193.499 85.2807 7.35565 99.0255 51.6397 -4.31553 1.69497 1.05076 -2.19748 3.4298 2.03577 -4.42599 3.4298 2.03577 -4.426 -8.3043e-012 -9.0191e-006 -5.27751e-005 -6.22321 11.3295 -2.41546 -179.489 -1.77034 -73.9025 -3.37993 18.4158 52.1995 -84.8667 -3.18055e-015 -3.18055e-015 -55.13 -36.4162 -39.8912 -178.063 4.62683 67.2592 -16.2084 -10.9406 -68.861 -56.5225 1.59028e-015 3.18055e-015 173.098 -48.1331 75.7073 -22.9868 -0.616192 -172.27 -35.9333 0 -7.95139e-016 24.7735 7.5267 -15.9241 90 -3.23025e-016 1.27222e-014 -37.6853 -14.0685 158.145 -71.1799 0 -3.18056e-015 -0.686287 -1.20782 2.39669 90 0 -6.36111e-015 
192.208 85.1524 7.03253 101.199 53.2832 -6.89944 1.79291 1.10416 -2.17502 3.6274 2.13941 -4.38452 3.6274 2.13941 -4.38453 -8.31066e-012 -9.0191e-006 -5.27751e-005 -7.67446 9.62196 -2.1547 -179.67 -1.14918 -73.9484 -2.5119 15.9921 50.3575 -87.2208 3.18055e-015 3.18055e-015 -57.7752 -33.9397 -41.0168 -178.05 4.7319 67.5749 -20.857 -11.2905 -69.1513 -61.8488 1.59028e-015 3.18055e-015 177.32 -47.3017 78.546 -23.9873 -1.91789 -171.026 -35.7264 -6.36111e-015 1.59028e-015 24.9832 8.01496 -17.0737 90 1.2424e-017 6.36111e-015 -40.5475 -12.7383 158.547 -68.7568 0 -6.36111e-015 1.95083 -3.61248 7.03979 90 -3.18055e-015 -6.36111e-015 
190.793 85.0948 6.69729 103.863 54.9456 -9.78657 1.92114 1.12848 -2.09827 3.88338 2.1857 -4.23421 3.88338 2.1857 -4.23422 -8.31066e-012 -9.0191e-006 -5.27751e-005 -9.15547 7.93532 -2.1382 -179.894 -0.373762 -74.0907 -1.35213 13.0059 49.0905 -90.1022 4.77083e-015 6.36111e-015 -58.7753 -32.0852 -40.5794 -178.278 4.32624 68.2777 -24.7593 -11.4464 -68.852 -68.1801 -3.97569e-016 7.95139e-016 -173.868 -46.7416 84.0134 -24.8298 -3.34506 -169.916 -34.9478 0 -7.95139e-016 24.8683 8.47041 -18.1775 90 -1.32937e-015 -1.27222e-014 -42.8349 -12.1746 158.49 -63.2166 -6.36111e-015 -0 2.20621 -3.33152 6.68022 90 0 6.36111e-015 
189.268 84.9575 6.18999 107.498 56.5784 -13.46 2.01722 1.14067 -1.98078 4.07382 2.2107 -4.00148 4.07382 2.2107 -4.00149 -8.31066e-012 -9.0191e-006 -5.27751e-005 -10.7421 6.22759 -2.21314 179.871 0.452968 -74.0791 -0.198818 9.83835 47.8753 -93.7925 2.38542e-015 -3.18055e-015 -59.2956 -29.7148 -38.7446 -178.602 3.62158 68.8705 -27.837 -11.5465 -67.3874 -75.8486 -3.97569e-016 -1.98785e-016 -169.336 -45.8691 86.124 -26.1298 -5.05817 -168.835 -34.1515 -9.54166e-015 -1.59028e-015 24.5107 8.94811 -19.355 90 8.97637e-016 -6.36111e-015 -44.4157 -10.8939 158.489 -56.0296 -9.54167e-015 3.18056e-015 3.28973 -1.97912 5.19544 90 0 -0 
187.499 84.7302 5.44831 111.247 57.46 -17.0872 2.09699 1.30036 -1.87791 4.23705 2.5309 -3.80342 4.23705 2.5309 -3.80343 -8.3043e-012 -9.0191e-006 -5.27751e-005 -12.1846 4.35792 -2.49371 179.628 1.29535 -73.9696 0.524847 6.46126 46.2707 -97.9105 -5.56597e-015 -1.27222e-014 -59.5834 -27.1946 -36.4769 -178.928 2.90709 69.744 -30.6798 -10.7786 -65.1015 -83.7348 0 -3.18055e-015 -166.546 -43.7618 86.3727 -27.489 -5.8979 -167.299 -33.2273 9.54166e-015 -3.97569e-016 24.1746 9.7569 -21.2882 90 1.98785e-016 3.18055e-015 -44.301 -7.62951 159.345 -46.6583 -6.36111e-015 -0 2.27023 -1.10819 4.0874 90 0 -0 
